<svg width="20" height="20" viewBox="0 0 20 20" fill="none" xmlns="http://www.w3.org/2000/svg">
<path d="M7.33333 9.33398C6.44928 9.33398 5.60143 8.98279 4.97631 8.35767C4.35119 7.73255 4 6.88471 4 6.00065V3.33398C4 3.15717 4.07024 2.9876 4.19526 2.86258C4.32029 2.73756 4.48986 2.66732 4.66667 2.66732H5.33333C5.51014 2.66732 5.67971 2.59708 5.80474 2.47206C5.92976 2.34703 6 2.17746 6 2.00065C6 1.82384 5.92976 1.65427 5.80474 1.52925C5.67971 1.40422 5.51014 1.33398 5.33333 1.33398H4.66667C4.13623 1.33398 3.62753 1.5447 3.25245 1.91977C2.87738 2.29484 2.66667 2.80355 2.66667 3.33398V6.00065C2.66752 6.75381 2.85118 7.4955 3.20187 8.16204C3.55255 8.82857 4.05978 9.40002 4.68 9.82732C5.27589 10.3527 5.75914 10.9933 6.10059 11.7106C6.44204 12.4279 6.63461 13.2069 6.66667 14.0007C6.66667 15.2383 7.15833 16.4253 8.0335 17.3005C8.90867 18.1757 10.0957 18.6673 11.3333 18.6673C12.571 18.6673 13.758 18.1757 14.6332 17.3005C15.5083 16.4253 16 15.2383 16 14.0007V13.2407C16.6284 13.0784 17.1761 12.6925 17.5404 12.1553C17.9047 11.6181 18.0605 10.9665 17.9787 10.3226C17.897 9.67877 17.5832 9.08683 17.0962 8.65777C16.6092 8.22871 15.9824 7.992 15.3333 7.992C14.6843 7.992 14.0575 8.22871 13.5705 8.65777C13.0835 9.08683 12.7697 9.67877 12.6879 10.3226C12.6061 10.9665 12.762 11.6181 13.1263 12.1553C13.4905 12.6925 14.0382 13.0784 14.6667 13.2407V14.0007C14.6667 14.8847 14.3155 15.7326 13.6904 16.3577C13.0652 16.9828 12.2174 17.334 11.3333 17.334C10.4493 17.334 9.60143 16.9828 8.97631 16.3577C8.35119 15.7326 8 14.8847 8 14.0007C8.03375 13.2059 8.2284 12.4263 8.57217 11.709C8.91594 10.9916 9.40168 10.3515 10 9.82732C10.6178 9.39854 11.1224 8.82644 11.4707 8.16C11.819 7.49356 12.0006 6.75263 12 6.00065V3.33398C12 2.80355 11.7893 2.29484 11.4142 1.91977C11.0391 1.5447 10.5304 1.33398 10 1.33398H9.33333C9.15652 1.33398 8.98695 1.40422 8.86193 1.52925C8.73691 1.65427 8.66667 1.82384 8.66667 2.00065C8.66667 2.17746 8.73691 2.34703 8.86193 2.47206C8.98695 2.59708 9.15652 2.66732 9.33333 2.66732H10C10.1768 2.66732 10.3464 2.73756 10.4714 2.86258C10.5964 2.9876 10.6667 3.15717 10.6667 3.33398V6.00065C10.6667 6.43839 10.5804 6.87184 10.4129 7.27626C10.2454 7.68068 9.99989 8.04814 9.69036 8.35767C9.38083 8.6672 9.01336 8.91273 8.60894 9.08025C8.20453 9.24777 7.77107 9.33398 7.33333 9.33398ZM15.3333 12.0007C14.9797 12.0007 14.6406 11.8602 14.3905 11.6101C14.1405 11.3601 14 11.0209 14 10.6673C14 10.3137 14.1405 9.97456 14.3905 9.72451C14.6406 9.47446 14.9797 9.33398 15.3333 9.33398C15.687 9.33398 16.0261 9.47446 16.2761 9.72451C16.5262 9.97456 16.6667 10.3137 16.6667 10.6673C16.6667 11.0209 16.5262 11.3601 16.2761 11.6101C16.0261 11.8602 15.687 12.0007 15.3333 12.0007Z" fill="#0D6EFD"/>
</svg>
