<svg width="20" height="20" viewBox="0 0 20 20" fill="none" xmlns="http://www.w3.org/2000/svg">
<path fill-rule="evenodd" clip-rule="evenodd" d="M13.0684 2.73484C13.3634 2.44 13.7583 2.2665 14.175 2.24861C14.5917 2.23071 15 2.36971 15.3192 2.63817L15.4251 2.73484L16.0142 3.32484C16.3089 3.61972 16.4824 4.01436 16.5005 4.43088C16.5185 4.8474 16.3798 5.25557 16.1117 5.57484L16.0151 5.6815L15.4251 6.27067C15.3743 6.32131 15.3203 6.36863 15.2634 6.41234C15.3363 6.67374 15.3443 6.949 15.2866 7.21419C15.229 7.47937 15.1074 7.72647 14.9326 7.934L14.8359 8.03817L14.0109 8.86317C14.5847 9.37099 15.0439 9.995 15.3581 10.6938C15.6723 11.3926 15.8343 12.1503 15.8334 12.9165C15.8334 14.2865 15.3251 15.5373 14.4867 16.4915L14.3251 16.6665H16.6667C16.8791 16.6667 17.0834 16.7481 17.2379 16.8939C17.3923 17.0397 17.4852 17.239 17.4977 17.451C17.5101 17.663 17.4412 17.8718 17.3048 18.0347C17.1685 18.1976 16.9751 18.3023 16.7642 18.3273L16.6667 18.3332H3.33339C3.12099 18.3329 2.91669 18.2516 2.76225 18.1058C2.6078 17.96 2.51486 17.7607 2.50241 17.5487C2.48996 17.3366 2.55895 17.1279 2.69527 16.965C2.8316 16.8021 3.02497 16.6974 3.23589 16.6723L3.33339 16.6665H10.4167C11.1691 16.6666 11.904 16.4404 12.5261 16.0173C13.1482 15.5942 13.6287 14.9937 13.905 14.294C14.1814 13.5942 14.2409 12.8276 14.0758 12.0935C13.9107 11.3595 13.5286 10.6922 12.9792 10.1782L12.8292 10.0448L10.1217 12.7532C9.82673 13.0478 9.43204 13.2211 9.01552 13.239C8.599 13.2569 8.19089 13.1181 7.87172 12.8498L7.76505 12.7523L5.99755 10.9848C5.7026 10.6899 5.52895 10.2951 5.5109 9.87839C5.49284 9.46167 5.6317 9.05333 5.90005 8.734L5.99755 8.62817L10.7117 3.91401C10.9204 3.70521 11.1809 3.5556 11.4664 3.48049C11.7519 3.40537 12.0523 3.40745 12.3367 3.48651L12.4051 3.40317L12.4792 3.32484L13.0684 2.73484ZM5.40839 11.5748L7.17505 13.3423C7.2547 13.4192 7.31825 13.5111 7.36199 13.6127C7.40574 13.7143 7.4288 13.8237 7.42984 13.9343C7.43088 14.045 7.40987 14.1547 7.36804 14.2572C7.32621 14.3596 7.2644 14.4527 7.18621 14.531C7.10803 14.6093 7.01503 14.6712 6.91265 14.7132C6.81026 14.7552 6.70055 14.7763 6.5899 14.7755C6.47925 14.7746 6.36988 14.7517 6.26818 14.7081C6.16648 14.6645 6.07448 14.601 5.99755 14.5215L4.22922 12.7532C4.15185 12.6757 4.09049 12.5838 4.04864 12.4827C4.00678 12.3816 3.98526 12.2732 3.9853 12.1637C3.98534 12.0543 4.00694 11.9459 4.04886 11.8448C4.09078 11.7437 4.15221 11.6518 4.22964 11.5744C4.30706 11.4971 4.39897 11.4357 4.50011 11.3938C4.60125 11.352 4.70964 11.3305 4.8191 11.3305C4.92856 11.3305 5.03693 11.3521 5.13804 11.3941C5.23915 11.436 5.33102 11.4974 5.40839 11.5748ZM14.2467 3.91484L13.6576 4.50401L14.2467 5.09317L14.8359 4.50401L14.2467 3.91484Z" fill="white"/>
</svg>
