<svg width="20" height="18" viewBox="0 0 20 18" fill="none" xmlns="http://www.w3.org/2000/svg">
<path d="M2.22222 2.33398C0.996528 2.33398 0 3.33051 0 4.55621V13.4451C0 14.6708 0.996528 15.6673 2.22222 15.6673H17.7778C19.0035 15.6673 20 14.6708 20 13.4451V4.55621C20 3.33051 19.0035 2.33398 17.7778 2.33398H2.22222ZM4.44444 13.4451H2.22222V11.2229C3.44792 11.2229 4.44444 12.2194 4.44444 13.4451ZM2.22222 6.77843V4.55621H4.44444C4.44444 5.7819 3.44792 6.77843 2.22222 6.77843ZM15.5556 13.4451C15.5556 12.2194 16.5521 11.2229 17.7778 11.2229V13.4451H15.5556ZM17.7778 6.77843C16.5521 6.77843 15.5556 5.7819 15.5556 4.55621H17.7778V6.77843ZM6.11111 9.00065C6.11111 8.48995 6.2117 7.98426 6.40714 7.51244C6.60257 7.04062 6.88902 6.61191 7.25014 6.25079C7.61126 5.88967 8.03996 5.60322 8.51179 5.40779C8.98361 5.21235 9.4893 5.11176 10 5.11176C10.5107 5.11176 11.0164 5.21235 11.4882 5.40779C11.96 5.60322 12.3887 5.88967 12.7499 6.25079C13.111 6.61191 13.3974 7.04062 13.5929 7.51244C13.7883 7.98426 13.8889 8.48995 13.8889 9.00065C13.8889 9.51135 13.7883 10.017 13.5929 10.4889C13.3974 10.9607 13.111 11.3894 12.7499 11.7505C12.3887 12.1116 11.96 12.3981 11.4882 12.5935C11.0164 12.789 10.5107 12.8895 10 12.8895C9.4893 12.8895 8.98361 12.789 8.51179 12.5935C8.03996 12.3981 7.61126 12.1116 7.25014 11.7505C6.88902 11.3894 6.60257 10.9607 6.40714 10.4889C6.2117 10.017 6.11111 9.51135 6.11111 9.00065ZM8.75 7.33398C8.75 7.67079 8.98958 7.94857 9.30556 8.01454V9.6951H9.16667C8.78472 9.6951 8.47222 10.0076 8.47222 10.3895C8.47222 10.7715 8.78472 11.084 9.16667 11.084H10.8333C11.2153 11.084 11.5278 10.7715 11.5278 10.3895C11.5278 10.0076 11.2153 9.6951 10.8333 9.6951H10.6944V7.33398C10.6944 6.95204 10.3819 6.63954 10 6.63954H9.44444C9.0625 6.63954 8.75 6.95204 8.75 7.33398Z" fill="#FFF"/>
</svg>
