<svg width="26" height="26" viewBox="0 0 26 26" fill="none" xmlns="http://www.w3.org/2000/svg">
<path d="M23 21.9052C23.0873 22.0213 23.1406 22.1594 23.1538 22.3041C23.1669 22.4487 23.1395 22.5942 23.0746 22.7241C23.0097 22.8541 22.9098 22.9633 22.7863 23.0397C22.6627 23.116 22.5203 23.1564 22.375 23.1562H3.625C3.47991 23.1562 3.33769 23.1158 3.21427 23.0395C3.09085 22.9633 2.99111 22.8541 2.92623 22.7244C2.86134 22.5946 2.83388 22.4493 2.84691 22.3048C2.85994 22.1603 2.91295 22.0223 3 21.9062C3.69178 20.9787 4.61428 20.2485 5.67578 19.7881C5.09392 19.257 4.68623 18.5624 4.5062 17.7955C4.32618 17.0286 4.38224 16.2252 4.66702 15.4907C4.95181 14.7562 5.45202 14.125 6.10199 13.6799C6.75196 13.2348 7.52132 12.9966 8.30908 12.9966C9.09685 12.9966 9.86621 13.2348 10.5162 13.6799C11.1661 14.125 11.6664 14.7562 11.9511 15.4907C12.2359 16.2252 12.292 17.0286 12.112 17.7955C11.9319 18.5624 11.5242 19.257 10.9424 19.7881C11.7082 20.1191 12.4042 20.5927 12.9932 21.1836C13.5822 20.5927 14.2781 20.1191 15.0439 19.7881C14.4621 19.257 14.0544 18.5624 13.8744 17.7955C13.6943 17.0286 13.7504 16.2252 14.0352 15.4907C14.32 14.7562 14.8202 14.125 15.4702 13.6799C16.1201 13.2348 16.8895 12.9966 17.6772 12.9966C18.465 12.9966 19.2344 13.2348 19.8843 13.6799C20.5343 14.125 21.0345 14.7562 21.3193 15.4907C21.6041 16.2252 21.6602 17.0286 21.4801 17.7955C21.3001 18.5624 20.8924 19.257 20.3105 19.7881C21.377 20.2461 22.3044 20.9761 23 21.9052ZM3.15625 12.8437C3.23833 12.9053 3.33172 12.9501 3.43111 12.9755C3.53049 13.001 3.63392 13.0066 3.73549 12.9921C3.83705 12.9776 3.93476 12.9432 4.02304 12.891C4.11132 12.8387 4.18844 12.7695 4.25 12.6875C4.72301 12.0568 5.33637 11.5449 6.04149 11.1923C6.74662 10.8398 7.52415 10.6562 8.3125 10.6562C9.10085 10.6562 9.87838 10.8398 10.5835 11.1923C11.2886 11.5449 11.902 12.0568 12.375 12.6875C12.4478 12.7845 12.5421 12.8633 12.6506 12.9175C12.7591 12.9717 12.8787 13 13 13C13.1213 13 13.2409 12.9717 13.3494 12.9175C13.4579 12.8633 13.5522 12.7845 13.625 12.6875C14.098 12.0568 14.7114 11.5449 15.4165 11.1923C16.1216 10.8398 16.8991 10.6562 17.6875 10.6562C18.4759 10.6562 19.2534 10.8398 19.9585 11.1923C20.6636 11.5449 21.277 12.0568 21.75 12.6875C21.8116 12.7695 21.8888 12.8387 21.9771 12.8909C22.0655 12.9432 22.1633 12.9775 22.2649 12.992C22.3665 13.0064 22.4699 13.0007 22.5693 12.9752C22.6688 12.9497 22.7622 12.9049 22.8442 12.8432C22.9263 12.7816 22.9954 12.7044 23.0477 12.6161C23.0999 12.5277 23.1343 12.43 23.1487 12.3284C23.1632 12.2268 23.1575 12.1233 23.132 12.0239C23.1065 11.9245 23.0616 11.8311 23 11.749C22.3082 10.8218 21.3857 10.0918 20.3242 9.63181C20.9061 9.10075 21.3138 8.40618 21.4938 7.63926C21.6738 6.87234 21.6178 6.06891 21.333 5.33442C21.0482 4.59994 20.548 3.96872 19.898 3.52361C19.248 3.07851 18.4787 2.84033 17.6909 2.84033C16.9032 2.84033 16.1338 3.07851 15.4838 3.52361C14.8339 3.96872 14.3336 4.59994 14.0489 5.33442C13.7641 6.06891 13.708 6.87234 13.888 7.63926C14.0681 8.40618 14.4758 9.10075 15.0576 9.63181C14.2918 9.96284 13.5958 10.4364 13.0068 11.0273C12.4178 10.4364 11.7219 9.96284 10.9561 9.63181C11.5379 9.10075 11.9456 8.40618 12.1256 7.63926C12.3057 6.87234 12.2496 6.06891 11.9648 5.33442C11.68 4.59994 11.1798 3.96872 10.5299 3.52361C9.87988 3.07851 9.11052 2.84033 8.32275 2.84033C7.53499 2.84033 6.76563 3.07851 6.11566 3.52361C5.46569 3.96872 4.96548 4.59994 4.68069 5.33442C4.39591 6.06891 4.33985 6.87234 4.51987 7.63926C4.6999 8.40618 5.1076 9.10075 5.68945 9.63181C4.62297 10.0902 3.69556 10.8206 3 11.75C2.93844 11.832 2.89365 11.9254 2.86819 12.0248C2.84273 12.1242 2.83709 12.2276 2.8516 12.3292C2.86611 12.4308 2.90048 12.5285 2.95275 12.6168C3.00503 12.705 3.07417 12.7822 3.15625 12.8437Z" fill="white"/>
</svg>
